# xmcd
#
# Track frame offsets:
#	150
#	22755
#	49572
#	69111
#	94822
#	114833
#	146426
#	164813
#
# Disc length: 2499 seconds
#
# Revision: 1
# Processed by: cddbd v1.5.2PL0 Copyright (c) Steve Scherf et al.
# Submitted via: audiograbber 1.83.01
#
DISCID=5b09c108
DTITLE=Various Artist - Sweet Home Alabama - A Country Music Tribute to Lynyrd
DTITLE=Skynyrd
DYEAR=2010
DGENRE=Country
TTITLE0=The Ballad of Curtis Loew - Eric Church
TTITLE1=Simple Man - Randy Houser
TTITLE2=All I Can Do Is Write About It - Uncle Kracker
TTITLE3=Call Me The Breeze - Shooter Jennings
TTITLE4=Four Walls Of Raiford - Jamey Johnson
TTITLE5=Tuesday's Gone - Randy Montana
TTITLE6=Gimme Three Steps - Eli Young Band
TTITLE7=Sweet Home Alabama - Ashley Ray
EXTD=
EXTT0=
EXTT1=
EXTT2=
EXTT3=
EXTT4=
EXTT5=
EXTT6=
EXTT7=
PLAYORDER=
